<svg width="40" height="40" fill="none" xmlns="http://www.w3.org/2000/svg">
    <g clip-path="url(#prefix__clip0_90_143)">
        <path fill-rule="evenodd" clip-rule="evenodd"
            d="M11.184 22.532L8.407 24.75l-.148.12a1.848 1.848 0 00-.29 2.592c.633.792 1.8.92 2.593.29l.002-.002 2.925-2.339.005-.002h.002a1.848 1.848 0 00.283-2.588 1.853 1.853 0 00-2.595-.29z"
            fill="#D9EBE9" />
        <path fill-rule="evenodd" clip-rule="evenodd"
            d="M13.489 25.412l-2.926 2.338-.002.003a1.847 1.847 0 00-.286 2.59c.634.792 1.8.923 2.596.288l2.925-2.336 1.287-1.029c.795-.635.923-1.8.29-2.593a1.855 1.855 0 00-2.596-.29l-1.282 1.027-.006.002z"
            fill="#D9EBE9" />
        <path fill-rule="evenodd" clip-rule="evenodd"
            d="M15.796 28.295l-2.925 2.336a1.848 1.848 0 00-.29 2.593 1.853 1.853 0 002.595.29l1.639-1.31 1.287-1.029c.795-.633.923-1.8.29-2.593a1.853 1.853 0 00-2.596-.287z"
            fill="#D9EBE9" />
        <path fill-rule="evenodd" clip-rule="evenodd"
            d="M16.815 32.204l-1.639 1.31a1.848 1.848 0 00-.287 2.592c.633.792 1.8.923 2.595.288l1.636-1.31a1.846 1.846 0 00.29-2.59 1.853 1.853 0 00-2.595-.29z"
            fill="#D9EBE9" />
        <path fill-rule="evenodd" clip-rule="evenodd"
            d="M10.655 13.598L5.599 22.54c1.235.354 2.312 1.144 2.808 2.21l2.777-2.218a1.853 1.853 0 012.595.29c.633.79.505 1.953-.283 2.588l1.282-1.027a1.855 1.855 0 012.595.29 1.848 1.848 0 01-.29 2.593l-1.286 1.029a1.853 1.853 0 012.595.287c.634.792.505 1.96-.29 2.593l-1.287 1.029a1.853 1.853 0 012.596.29c.39.486.491 1.117.325 1.679l1.648 1.316c.793.633 1.96.505 2.596-.29a1.85 1.85 0 00-.29-2.593l1.133.907a1.853 1.853 0 002.596-.29 1.848 1.848 0 00-.288-2.592c.793.635 1.96.504 2.595-.288a1.85 1.85 0 00-.29-2.593 1.852 1.852 0 002.596-.287 1.848 1.848 0 00-.288-2.593l-.148-.12-2.388-1.906c-1.231-.983-2.622-2.071-3.942-3.018-2.387-1.71-3.563-2.847-6.555-2.245-2.26.455-4.09-.235-4.566-2.193-.071-.294-.066-.553.007-.776l-3.497-1.014z"
            fill="#79D5AE" />
        <path fill-rule="evenodd" clip-rule="evenodd"
            d="M20.423 13.052l-3.388.303c-1.628.144-2.638.522-2.884 1.256-.073.224-.077.483-.006.777.476 1.958 2.305 2.648 4.566 2.192 2.992-.601 4.168.536 6.555 2.246 1.32.947 2.71 2.035 3.942 3.017l2.387 1.907c.494-1.066 1.57-1.856 2.806-2.21l-5.051-8.93-2.1.608c-1.437.416-1.251.287-2.633-.195l-2.044-.715c-1.083-.378-1.482-.316-2.15-.256z"
            fill="#D9EBE9" />
        <path fill-rule="evenodd" clip-rule="evenodd"
            d="M28.913 12.835l.436.775 5.052 8.93.544.965c.315.555 1.028.75 1.588.44l2.093-1.159a1.17 1.17 0 00.443-1.586l-.135-.235-5.9-10.433a1.17 1.17 0 00-1.585-.44l-2.096 1.16a1.16 1.16 0 00-.44 1.583zM6.965 10.532L.932 21.2a1.162 1.162 0 00.441 1.586l2.093 1.16c.56.309 1.273.114 1.588-.441l.544-.964 5.056-8.943.432-.763a1.16 1.16 0 00-.44-1.584l-2.093-1.159a1.173 1.173 0 00-1.588.44z"
            fill="#FDF088" />
        <path
            d="M20 7.965c.431 0 .781-.35.781-.782v-3.98a.781.781 0 10-1.562 0v3.98c0 .432.35.782.781.782zM14.126 9.248a.78.78 0 101.322-.833l-2.082-3.303a.781.781 0 10-1.322.833l2.082 3.303zM24.799 9.493a.778.778 0 001.077-.245l2.08-3.303a.781.781 0 00-1.323-.833l-2.08 3.303a.781.781 0 00.246 1.078z"
            fill="#000" />
        <path
            d="M39.748 20.815l-1.357-2.398a.78.78 0 10-1.36.77l1.357 2.396a.386.386 0 01-.141.52l-2.092 1.158a.396.396 0 01-.53-.14l-.531-.94-.007-.013-5.495-9.718a.38.38 0 01.14-.515l2.094-1.159a.389.389 0 01.528.141l1.225 2.164a.781.781 0 001.36-.77l-1.224-2.162a1.956 1.956 0 00-2.645-.74l-2.094 1.159c-.453.25-.78.664-.922 1.166a1.93 1.93 0 00.133 1.4l-1.154.334c-.492.142-.79.219-.956.219h-.002c-.113 0-.238-.044-.592-.178-.162-.061-.362-.137-.608-.223l-2.044-.715c-1.13-.395-1.64-.373-2.38-.306l-3.485.312c-1.59.14-2.602.5-3.161 1.12l-1.987-.575c.214-.431.26-.92.128-1.388a1.915 1.915 0 00-.921-1.166L8.93 9.408a1.957 1.957 0 00-2.645.74L.254 20.814a1.933 1.933 0 00-.18 1.489c.142.502.469.916.921 1.166l2.094 1.16c.299.165.624.244.945.244a1.95 1.95 0 001.7-.984l.222-.39c.603.265 1.11.65 1.455 1.108-.337.394-.55.88-.61 1.41-.078.7.12 1.386.557 1.933a2.608 2.608 0 001.749.966 2.617 2.617 0 002.306 2.88 2.606 2.606 0 00.557 1.914 2.605 2.605 0 001.75.968 2.622 2.622 0 002.613 2.9 2.62 2.62 0 001.64-.575l1.635-1.309c.13-.104.248-.218.354-.342l.934.747a2.616 2.616 0 001.637.573 2.627 2.627 0 002.58-2.12 2.612 2.612 0 001.153.127 2.604 2.604 0 001.761-.967 2.602 2.602 0 00.56-1.916 2.614 2.614 0 002.306-2.88 2.606 2.606 0 001.747-.965 2.604 2.604 0 00.559-1.93 2.608 2.608 0 00-.61-1.414c.345-.457.85-.844 1.455-1.11l.221.393a1.95 1.95 0 001.7.983c.321 0 .647-.079.946-.245l2.093-1.158c.452-.25.779-.664.92-1.165a1.936 1.936 0 00-.176-1.49zM4.374 23.12a.396.396 0 01-.529.142l-2.093-1.16a.384.384 0 01-.139-.518l6.033-10.668c.069-.122.199-.19.334-.19.066 0 .133.015.194.05l2.093 1.159a.381.381 0 01.139.516L4.374 23.12zm5.702 4.02c-.22.177-.499.256-.783.225a1.056 1.056 0 01-.938-1.173c.031-.284.17-.536.392-.712l2.924-2.338a1.068 1.068 0 011.498.167c.177.22.256.498.224.782a1.05 1.05 0 01-.39.71l-.014.011-2.913 2.328zm.81 2.714a1.051 1.051 0 01-.225-.78c.031-.283.17-.537.39-.714h.001l4.213-3.366a1.067 1.067 0 011.498.167c.176.22.256.497.224.78-.031.284-.17.538-.391.714l-4.212 3.365a1.068 1.068 0 01-1.499-.166zm3.02 3.273a1.054 1.054 0 01-.939-1.173 1.057 1.057 0 01.392-.713l2.915-2.33.011-.007a1.067 1.067 0 011.497.166c.176.22.256.498.224.783-.032.283-.17.535-.392.711l-2.925 2.338c-.22.176-.5.256-.784.224zm5.118.634c-.032.283-.17.536-.392.712l-1.635 1.31a1.068 1.068 0 01-1.499-.166 1.052 1.052 0 01-.224-.78c.031-.285.17-.538.39-.713l1.636-1.308.003-.002a1.068 1.068 0 011.498.167c.175.22.255.497.223.78zm12.397-6.787c-.176.22-.43.36-.714.39a1.055 1.055 0 01-.783-.224l-2.091-1.67a.781.781 0 00-.976 1.22l2.09 1.67c.459.367.534 1.038.17 1.494a1.068 1.068 0 01-1.5.166l-2.267-1.81a.781.781 0 00-.975 1.221l2.267 1.81c.22.176.36.43.391.713.032.283-.048.56-.226.782-.175.22-.429.359-.713.39a1.061 1.061 0 01-.783-.223L24.182 32l-.005-.004-.953-.762-.179-.143a.781.781 0 10-.976 1.22l1.135.907c.455.368.53 1.036.165 1.492a1.068 1.068 0 01-1.498.168l-1.287-1.028a2.611 2.611 0 00-1.502-2.582c.26-.361.425-.785.477-1.24a2.608 2.608 0 00-1.495-2.67c.26-.363.426-.787.476-1.244a2.606 2.606 0 00-.557-1.93 2.633 2.633 0 00-3.08-.776 2.606 2.606 0 00-.514-1.075 2.633 2.633 0 00-3.693-.412l-2.092 1.672a5.147 5.147 0 00-1.876-1.461l4.303-7.611 2.291.664c.01.122.03.251.064.388.554 2.28 2.654 3.343 5.479 2.773 2.38-.479 3.36.235 5.312 1.656l.633.459c1.404 1.007 2.904 2.19 3.91 2.992l2.536 2.027c.22.176.359.43.39.713.031.284-.048.56-.225.781zm-.025-3.381l-1.701-1.36c-1.02-.814-2.541-2.014-3.974-3.042-.218-.156-.425-.307-.624-.452-2.024-1.474-3.487-2.538-6.54-1.924-.935.188-3.162.408-3.653-1.611-.07-.285.001-.383.03-.425.105-.146.526-.5 2.17-.646l3.49-.312c.568-.052.853-.078 1.721.225l2.044.715c.228.08.41.148.57.209.984.373 1.245.373 2.538-.002l1.507-.436 4.298 7.6c-.76.357-1.403.857-1.876 1.46z"
            fill="#000" />
        <path d="M35.982 16.531a.782.782 0 10-.78-.782v.002c0 .432.349.78.78.78z" fill="#000" />
    </g>
    <defs>
        <clipPath id="prefix__clip0_90_143">
            <path fill="#fff" d="M0 0h40v40H0z" />
        </clipPath>
    </defs>
</svg>