<svg width="34" height="34" fill="none" xmlns="http://www.w3.org/2000/svg">
    <g clip-path="url(#prefix__clip0_91_167)">
        <path fill-rule="evenodd" clip-rule="evenodd"
            d="M26.969 20.318a6.317 6.317 0 00-3.4.985 6.35 6.35 0 00-2.187 8.414 6.391 6.391 0 002.564 2.552 6.36 6.36 0 009.385-5.595 6.356 6.356 0 00-6.362-6.356z"
            fill="#FDF088" />
        <path fill-rule="evenodd" clip-rule="evenodd"
            d="M11.512 17.909C5.573 18.674.899 22.046.669 28.348c3.489 1.203 7.418 1.87 11.394 1.997l-.83-2.298 1.376-7.154-1.095-2.984h-.002zM23.568 21.303c-2.015-1.892-4.787-3.024-7.698-3.398l-1.097 2.988 1.375 7.154-.828 2.298a42.148 42.148 0 006.063-.628 6.312 6.312 0 01-.775-3.043c0-2.26 1.18-4.244 2.96-5.37z"
            fill="#79D5AE" />
        <path fill-rule="evenodd" clip-rule="evenodd"
            d="M16.149 28.047l-1.376-7.154H12.61l-1.376 7.154.83 2.298a47.18 47.18 0 001.628.023 47.36 47.36 0 001.63-.023l.828-2.298z"
            fill="#F9F9F9" />
        <path fill-rule="evenodd" clip-rule="evenodd"
            d="M15.87 17.905a7.08 7.08 0 01-2.21.352 7.245 7.245 0 01-2.146-.348l1.095 2.984h2.164l1.097-2.988z"
            fill="#C6C4C8" />
        <path fill-rule="evenodd" clip-rule="evenodd"
            d="M20.85 9.04h-5.702c-2.829 0-4.697-.956-6.054-2.319.028 2.655-2.621 2.319-2.621 2.319v2.7c0 .183.01.361.026.54.265 2.614 2.43 4.805 5.013 5.629h.002a7.251 7.251 0 002.147.348 7.079 7.079 0 002.21-.352 7.784 7.784 0 001.915-.931c1.637-1.09 2.843-2.783 3.035-4.696.02-.177.029-.357.029-.538v-2.7z"
            fill="#D9EBE9" />
        <path fill-rule="evenodd" clip-rule="evenodd"
            d="M20.85 9.04C21.819-1.928 6.473-.965 6.473 7.398V9.04s2.65.336 2.621-2.32c1.357 1.364 3.225 2.32 6.054 2.32h5.702z"
            fill="#D9EBE9" />
        <path fill-rule="evenodd" clip-rule="evenodd"
            d="M20.821 12.278c1.56-.056 2.467-1.965 1.735-3.24l-1.706.002v2.7c0 .18-.01.361-.029.538zM6.472 9.04H4.84c-.732 1.273.101 3.182 1.66 3.24a5.716 5.716 0 01-.027-.54v-2.7z"
            fill="#FDF088" />
        <path
            d="M29.972 20.32a6.98 6.98 0 00-3.003-.671 6.99 6.99 0 00-3.316.832c-1.527-1.311-3.478-2.29-5.655-2.849l.159-.102c1.748-1.166 2.91-2.857 3.254-4.67.697-.186 1.304-.665 1.685-1.35.5-.902.515-1.977.04-2.805a.669.669 0 00-.58-.336l-.999.001c.061-2.297-.589-4.25-1.898-5.679-1.392-1.52-3.517-2.392-5.831-2.392-2.011 0-4.002.663-5.463 1.819C6.713 3.425 5.804 5.3 5.804 7.398v.973h-.965c-.24 0-.46.128-.58.335-.487.848-.478 1.94.025 2.848.366.66.95 1.122 1.624 1.306.275 1.474 1.09 2.854 2.363 3.97.336.296.696.563 1.073.8a15.157 15.157 0 00-3.418 1.267.669.669 0 10.619 1.186c1.317-.688 2.838-1.169 4.527-1.435l.845 2.301-1.34 6.972a.67.67 0 00.027.353l.49 1.358a40.957 40.957 0 01-5.852-.741v-2.634a.669.669 0 00-1.337 0v2.337c-.872-.21-1.72-.45-2.54-.718.134-1.714.632-3.24 1.484-4.54a.669.669 0 00-1.12-.733C.662 24.235.08 26.16 0 28.323c-.01.295.173.561.45.657 3.474 1.198 7.481 1.901 11.59 2.034h.002c.494.015.994.023 1.486.023h.326c.492 0 .992-.008 1.486-.023h.002a43.063 43.063 0 005.7-.56 7.036 7.036 0 005.928 3.248c3.876 0 7.03-3.153 7.03-7.028a7.057 7.057 0 00-4.028-6.354zm-15.666-.096h-1.23l-.508-1.385a7.62 7.62 0 001.088.086h.046c.369 0 .741-.029 1.113-.086l-.509 1.385zm7.62-9.364a1.635 1.635 0 01-.408.483V9.708h.588a1.65 1.65 0 01-.18 1.152zM7.141 7.398c0-3.742 3.445-5.762 6.687-5.762 1.94 0 3.706.714 4.845 1.958 1.075 1.175 1.605 2.817 1.546 4.777h-5.072c-2.334 0-4.159-.694-5.58-2.122a.669.669 0 00-1.142.479c.006.545-.125.957-.387 1.222-.251.254-.607.361-.897.405v-.957zm-1.687 3.508a1.669 1.669 0 01-.17-1.197h.52v1.623a1.534 1.534 0 01-.35-.426zm1.687.834V9.703c.545-.054 1.282-.24 1.848-.812.247-.25.435-.545.564-.884 1.522 1.143 3.364 1.701 5.594 1.701h5.033v2.032c0 .162-.008.324-.025.485l-.001.012c-.173 1.599-1.17 3.133-2.74 4.18-1.132.756-2.449 1.171-3.712 1.171h-.037a6.591 6.591 0 01-1.883-.291.675.675 0 00-.085-.03l-.008-.003a.607.607 0 00-.043-.01c-2.53-.83-4.505-3.092-4.505-5.514zM13.689 29.7h-.161c-.329 0-.661-.003-.992-.01l-.611-1.696 1.236-6.431h1.06l1.236 6.431-.61 1.696c-.332.007-.664.01-.993.01h-.165zm2.6-.067l.489-1.358a.669.669 0 00.027-.353l-1.34-6.972.846-2.304c2.386.388 4.539 1.3 6.184 2.614a7.012 7.012 0 00-2.086 7.942c-1.344.21-2.724.354-4.12.431zm10.68 2.732a5.695 5.695 0 01-4.989-2.949l-.008-.015a5.682 5.682 0 01-.695-2.726 5.696 5.696 0 018.124-5.144 5.714 5.714 0 013.262 5.144 5.698 5.698 0 01-5.694 5.69z"
            fill="#000" />
        <path
            d="M3.968 21.703a.665.665 0 00.37-.112l.011-.007a.669.669 0 10-.74-1.114l-.012.007a.669.669 0 00.371 1.226zM29.22 27.756c0 .556-.16 1.002-.48 1.337a2.31 2.31 0 01-1.167.663v.685c0 .348-.296.63-.642.63a.631.631 0 01-.63-.63v-.68a2.482 2.482 0 01-.772-.315c-.235-.15-.4-.282-.493-.397l-.138-.18c-.583-.762.377-1.575.936-.988.067.07.139.156.222.247.233.26.576.3.854.3.527 0 .792-.216.792-.652 0-.156-.101-.276-.3-.363a4.643 4.643 0 00-.727-.23 6.17 6.17 0 01-.856-.272 1.642 1.642 0 01-.729-.589c-.2-.278-.299-.632-.299-1.059 0-.428.137-.81.407-1.154.265-.34.649-.572 1.114-.662v-.863c0-.346.284-.63.63-.63.348 0 .63.284.63.63v.872c.2.044.383.104.546.183.166.077.279.14.343.192l.098.084c.828.62.028 1.72-.687 1.119-.484-.406-1.583-.496-1.583.25 0 .158.073.284.218.38.147.096.328.162.542.194.213.032.448.084.706.16.256.075.493.161.706.261.214.1.395.277.542.53.145.252.218.569.218.947z"
            fill="#000" />
    </g>
    <defs>
        <clipPath id="prefix__clip0_91_167">
            <path fill="#fff" d="M0 0h34v34H0z" />
        </clipPath>
    </defs>
</svg>